<?xml version="1.0" standalone="no"?>
<!DOCTYPE svg PUBLIC "-//W3C//DTD SVG 20010904//EN"
 "http://www.w3.org/TR/2001/REC-SVG-20010904/DTD/svg10.dtd">
<svg version="1.0" xmlns="http://www.w3.org/2000/svg"
 width="320.000000pt" height="320.000000pt" viewBox="0 0 320.000000 320.000000"
 preserveAspectRatio="xMidYMid meet">
<metadata>
Created by potrace 1.11, written by Peter Selinger 2001-2013
</metadata>
<g transform="translate(0.000000,320.000000) scale(0.100000,-0.100000)"
fill="#000000" stroke="none">
<path d="M0 1600 l0 -1600 1600 0 1600 0 0 1600 0 1600 -1600 0 -1600 0 0
-1600z m956 789 c52 -32 66 -117 24 -149 -16 -12 -20 -21 -14 -32 13 -21 74
-4 81 23 5 19 6 19 17 -3 11 -23 15 -23 189 -26 l177 -2 0 25 c0 14 5 25 10
25 6 0 10 -12 10 -26 0 -43 21 -54 104 -54 44 0 76 -4 76 -10 0 -11 -17 -12
-127 -10 -46 1 -73 -3 -73 -9 0 -7 -30 -11 -78 -11 -76 0 -79 -1 -101 -31 -18
-24 -21 -38 -16 -68 5 -29 3 -40 -9 -44 -8 -3 -18 -22 -22 -42 -4 -21 -18 -45
-37 -61 -36 -30 -73 -28 -149 11 -38 19 -48 21 -52 9 -3 -8 4 -24 15 -35 18
-18 20 -28 14 -87 -9 -91 -22 -124 -49 -120 -35 5 -30 -30 14 -93 22 -32 50
-80 61 -106 12 -26 32 -73 46 -103 23 -49 25 -62 19 -135 -4 -44 -9 -125 -12
-181 -4 -92 -3 -103 17 -128 11 -15 38 -35 58 -44 24 -11 36 -24 36 -37 0 -18
-6 -20 -65 -19 -92 2 -169 9 -177 17 -3 4 -1 30 5 58 16 68 15 105 -4 180 -12
46 -14 84 -10 140 l7 76 -29 6 c-22 4 -39 21 -68 66 -21 34 -45 61 -52 61 -7
0 -20 9 -29 20 -16 19 -17 18 -40 -13 -13 -17 -31 -56 -40 -87 -17 -54 -46
-105 -71 -125 -7 -6 -16 -31 -19 -55 -3 -25 -14 -61 -23 -80 -9 -19 -20 -47
-24 -62 -3 -16 -11 -28 -16 -28 -5 0 -17 -14 -26 -32 -13 -24 -15 -48 -11 -99
l6 -67 -34 -6 c-45 -9 -83 2 -90 25 -3 10 1 48 11 85 9 37 18 90 19 118 3 60
32 146 75 221 20 35 30 66 30 93 0 23 5 63 10 89 7 31 7 65 1 98 -8 40 -7 55
6 74 11 18 13 38 8 92 -5 47 -3 74 4 83 10 11 8 16 -10 21 -18 6 -20 12 -15
38 4 17 9 55 13 84 5 50 7 53 34 53 29 0 29 1 29 58 0 83 17 131 61 176 35 35
43 38 78 33 l38 -5 -4 43 c-6 52 19 110 56 130 38 21 98 18 137 -6z m908 -758
c30 -20 55 -55 56 -78 0 -10 -62 -13 -262 -15 l-263 -3 0 -170 0 -170 203 -3
202 -2 0 60 0 60 -105 0 c-113 0 -150 11 -179 52 -33 47 -30 48 200 48 l216 0
-4 -124 c-3 -107 -6 -129 -24 -153 -42 -58 -68 -63 -304 -63 -241 0 -265 5
-307 69 -22 32 -23 43 -23 223 0 210 5 233 63 268 29 18 51 20 267 20 215 0
237 -2 264 -19z m744 -1 c55 -33 62 -66 62 -273 0 -175 -1 -186 -23 -218 -42
-63 -67 -69 -295 -69 -314 0 -312 -2 -312 299 l0 203 39 39 39 39 228 0 c212
0 231 -2 262 -20z m134 -2 c-5 -7 -12 -22 -14 -33 -3 -14 -6 -11 -9 13 -5 27
-2 32 14 32 14 0 17 -3 9 -12z m29 -29 c-9 -23 -10 -22 -10 11 -1 23 2 31 9
24 7 -7 7 -19 1 -35z m58 -4 l0 -20 -9 20 c-7 18 -8 19 -15 3 -7 -18 -25 -15
-25 3 0 6 4 8 9 4 5 -3 13 4 16 16 6 17 9 19 16 8 5 -8 8 -23 8 -34z"/>
<path d="M1130 2095 c0 -9 5 -15 11 -13 6 2 11 8 11 13 0 5 -5 11 -11 13 -6 2
-11 -4 -11 -13z"/>
<path d="M1100 2049 c9 -16 14 -18 26 -8 21 17 17 29 -11 29 -23 0 -24 -2 -15
-21z"/>
<path d="M2162 1363 l3 -178 188 -3 187 -2 0 180 0 180 -190 0 -190 0 2 -177z"/>
</g>
</svg>
